<svg xmlns="http://www.w3.org/2000/svg" viewBox="0 0 485.4 124.18"><defs><style>.cls-1{fill:#001f3c;}.cls-2{fill:#b2b3f5;}</style></defs><g id="Layer_2" data-name="Layer 2"><g id="Logo_Orizzontale" data-name="Logo Orizzontale"><path class="cls-1" d="M173,60.64c12.09,1,16.15,8.65,16.15,21.56,0,16.56-7.29,21-25.73,21-12.37,0-19.17-.08-26.94-.69a3.09,3.09,0,0,1-2.84-3.07V24.39a3.09,3.09,0,0,1,2.81-3.07c6.85-.59,12.87-.67,23.43-.67,19.79,0,26.87,4.48,26.87,21,0,11.56-4,17.5-13.64,18.43v.52ZM143.63,31.58v23a2.08,2.08,0,0,0,2.08,2.08h15.21c11.67-.11,15.83-2.82,15.83-13.65,0-11-4.47-13.43-17.39-13.43-5.25-.09-9.85-.1-13.65-.11A2.08,2.08,0,0,0,143.63,31.58Zm35.1,48.85c0-12.5-4.48-15.83-17.7-16H145.71a2.08,2.08,0,0,0-2.08,2.08V92.34a2.07,2.07,0,0,0,2.05,2.08c4.49.07,10,.07,16.08.07C174.46,94.49,178.73,91.89,178.73,80.43Z"/><path class="cls-1" d="M254.63,24.87l-.52,3.89a2.08,2.08,0,0,1-2.26,1.78,167.86,167.86,0,0,0-18.71-.83c-15.65,0-20.59,8-20.59,32.24s4.94,32.23,20.59,32.23a158.42,158.42,0,0,0,20.33-1,2.06,2.06,0,0,1,2.3,1.77l.51,3.77a2.08,2.08,0,0,1-1.56,2.29c-6.06,1.52-12.11,2.2-21.58,2.2-23.06,0-31.3-10.92-31.3-41.29s8.34-41.3,31.3-41.3c9.05,0,14.12.59,19.89,1.93A2.07,2.07,0,0,1,254.63,24.87Z"/><path class="cls-1" d="M326.43,25.18l-.35,3.6A2,2,0,0,1,324,30.63c-6.32-.27-13.84-.52-20.53-.52-11.49,0-16,.3-16,12.1,0,8.72,3,11.28,10.05,13l16.11,4c12.2,3,16,10.05,16,22.36,0,18.36-8.11,21.64-26.57,21.64a135.59,135.59,0,0,1-22.74-1.83,2.05,2.05,0,0,1-1.7-2.22l.36-3.68a2.05,2.05,0,0,1,2.11-1.85c11.94.38,16.14.65,22.38.55,12.21,0,16-1.84,16-12.82,0-9.23-3.08-11.38-10.05-13.13l-16.51-4.1c-11.49-2.87-15.7-10-15.7-22.16,0-18.56,8.1-20.92,25.85-20.92A114.61,114.61,0,0,1,324.8,23,2.05,2.05,0,0,1,326.43,25.18Z"/><path class="cls-1" d="M394.62,73.8c0,21.54-7.08,29.54-26.36,29.54s-26.36-8-26.36-29.54,7.18-29.54,26.36-29.54S394.62,52.36,394.62,73.8Zm-42.57,0c0,16.31,3.9,21.23,16.1,21.23s16.21-4.82,16.21-21.23-4-21.23-16.21-21.23S352.05,57.39,352.05,73.8Z"/><path class="cls-1" d="M434,28.77c-7.39,0-10.06,2.67-10.06,9.44v7a2,2,0,0,0,2.06,2h13.84a2,2,0,0,1,2,2.06v3.59a2,2,0,0,1-2,2H426A2.05,2.05,0,0,0,424,57v44.31a2,2,0,0,1-2.05,2h-5.64a2.05,2.05,0,0,1-2.05-2V57a2.05,2.05,0,0,0-2-2h-6.05a2.05,2.05,0,0,1-2.06-2v-3.2a2.06,2.06,0,0,1,1.93-2l6.3-.38a2.05,2.05,0,0,0,1.93-2V37.08c0-10.46,4.41-16.51,16.31-16.51,3.16,0,9.27.15,13.72.58a2.05,2.05,0,0,1,1.85,2.27l-.39,3.43a2.06,2.06,0,0,1-2,1.82H434Z"/><path class="cls-1" d="M467.65,86.83c0,5.43,2.05,7.49,7.59,7.49H482a2.05,2.05,0,0,1,2,1.74l.58,3.87a2.05,2.05,0,0,1-1.64,2.32,65.76,65.76,0,0,1-10.8,1.09c-9.43,0-14.36-5.43-14.36-15.18V55.85a2,2,0,0,0-2.05-2.05H449.7a2.05,2.05,0,0,1-2.05-2v-3.2a2.06,2.06,0,0,1,1.93-2l6.3-.38a2,2,0,0,0,1.92-2V31.54a2.05,2.05,0,0,1,2.06-2.05h5.64a2.05,2.05,0,0,1,2.05,2.05V44.06a2.05,2.05,0,0,0,2.05,2h13.74a2.05,2.05,0,0,1,2.06,2v3.59a2.05,2.05,0,0,1-2.06,2H469.6a2.05,2.05,0,0,0-2.05,2.05v31Z"/><path class="cls-1" d="M87.77,41.87a15.24,15.24,0,0,0-2.4-4.4,13.84,13.84,0,0,0-3.62-3.26,11.58,11.58,0,0,0-4.55-1.63L37.12,27.4l-1.18-.15L24.71,25.8l-7.29-.95a16.83,16.83,0,0,0-6.6.42,14.8,14.8,0,0,0-5.55,2.81A14.08,14.08,0,0,0,0,39.18v70.51A14.2,14.2,0,0,0,1.43,116a14,14,0,0,0,3.84,4.8,15.27,15.27,0,0,0,5.55,2.82,17.22,17.22,0,0,0,6.6.42l59.78-7.75a11.56,11.56,0,0,0,4.55-1.62,13.8,13.8,0,0,0,3.62-3.25,15.7,15.7,0,0,0,2.4-4.41,15.28,15.28,0,0,0,.87-5.11V47A15.25,15.25,0,0,0,87.77,41.87Zm-7,54.38a12,12,0,0,1-2.69,7.57,10.9,10.9,0,0,1-3,2.54,9.16,9.16,0,0,1-3.69,1.19L25.23,112.2a12.44,12.44,0,0,1-4.94-.48,11.14,11.14,0,0,1-8-10.79V48a11.4,11.4,0,0,1,1-4.81,11.22,11.22,0,0,1,2.84-3.73,11.77,11.77,0,0,1,4.12-2.27,12.18,12.18,0,0,1,4.42-.5l.52,0,10.71,1.07,1.18.13,34.3,3.44a9.35,9.35,0,0,1,3.69,1.21,10.69,10.69,0,0,1,3,2.53,12,12,0,0,1,2.69,7.57Z"/><path class="cls-2" d="M113,21.59V77.52a15,15,0,0,1-.83,4.89,14.63,14.63,0,0,1-2.3,4.2,13.29,13.29,0,0,1-3.47,3.11A11.23,11.23,0,0,1,102,91.26l-8.73,1.11V82.52l2.83-.15h0a8.69,8.69,0,0,0,3.47-1.12,10.13,10.13,0,0,0,2.78-2.37A11.33,11.33,0,0,0,105,71.77V27.34a11.12,11.12,0,0,0-.68-3.84,11,11,0,0,0-1.85-3.27,10.13,10.13,0,0,0-2.78-2.37,8.85,8.85,0,0,0-3.47-1.12L49.22,12.13a11.71,11.71,0,0,0-4.61.46,11,11,0,0,0-3.86,2.13,10.13,10.13,0,0,0-2.64,3.5,10.57,10.57,0,0,0-1,3.89c0,.19,0,.39,0,.6h0l-12.41-1.6V13.82a13.45,13.45,0,0,1,5-10.59A14.55,14.55,0,0,1,35,.55,16.4,16.4,0,0,1,41.29.13L102,7.85a11.23,11.23,0,0,1,4.35,1.54,13.43,13.43,0,0,1,3.47,3.1,14.82,14.82,0,0,1,2.3,4.21A15,15,0,0,1,113,21.59Z"/></g></g></svg>