<svg width="751" height="124" viewBox="0 0 751 124" fill="none" xmlns="http://www.w3.org/2000/svg">
<path d="M130 4C113.5 7 113.918 23.4068 115.769 31C125.5 29.5 156.728 26.661 172 26.1186L156.5 0L130 4Z" fill="#A7A6A6"/>
<path d="M231.191 79L254 120C260.083 120 273.785 119.523 277.471 118.784V91.6351H283V84.9865C283 83.6568 246.858 80.1081 231.191 79Z" fill="#A7A6A6"/>
<path d="M110.699 39.6747C137.671 34.7309 166.062 32.326 181.276 33.0126L200.843 68.122C191.32 68.447 183.895 68.643 177.782 68.7958V57.4569C177.782 52.44 173.715 48.373 168.698 48.373C163.681 48.3731 159.614 52.44 159.614 57.4569V69.3231C155.354 69.5048 151.461 69.7537 147.035 70.1649V60.7489C147.035 55.732 142.968 51.6649 137.951 51.6649C132.934 51.6651 128.867 55.732 128.867 60.7489V72.2987C124.946 72.8204 120.505 73.4336 115.367 74.1571V47.5028H110.699V39.6747Z" fill="#A7A6A6"/>
<path d="M191.059 32.4639C224.041 30.7084 266.76 35.0242 283.997 37.4014V45.6299H279.105V74.1573C277.988 73.8065 270.361 73.0357 260.238 72.1309V60.7491C260.238 55.7321 256.171 51.6651 251.154 51.6651C246.137 51.6652 242.07 55.7322 242.07 60.7491V70.5743C237.373 70.1853 232.627 69.802 228.094 69.4395V57.4571C228.094 52.4401 224.027 48.3731 219.01 48.3731C213.993 48.3732 209.926 52.4402 209.926 57.4571V65.6622L191.059 32.4639Z" fill="#A7A6A6"/>
<path d="M110 82.3866C146.337 75.8035 199.211 75.986 219.709 76.9003L245.564 121.336C233.382 122.171 221.958 122.689 211.323 122.958V100.248C211.323 95.231 207.256 91.1639 202.239 91.1639C197.222 91.1641 193.155 95.231 193.155 100.248V123.186C188.292 123.184 183.632 123.128 179.18 123.028V100.248C179.18 95.231 175.113 91.1639 170.096 91.1639C165.079 91.1641 161.012 95.231 161.012 100.248V122.33C155.983 122.051 151.322 121.718 147.035 121.348V99.1503C147.035 94.1333 142.968 90.0663 137.951 90.0663C132.934 90.0664 128.867 94.1334 128.867 99.1503V119.289C123.356 118.486 119.145 117.669 116.289 116.947V92.8094H110V82.3866Z" fill="#A7A6A6"/>
<rect width="32.3459" height="91.6984" rx="16.173" transform="matrix(-0.499998 -0.866026 0.866024 -0.500002 16.6504 93.8574)" fill="#EA4335"/>
<rect width="32.3459" height="91.6984" rx="16.173" transform="matrix(0.499995 -0.866028 0.866023 0.500005 0 77.5537)" fill="#4285F4"/>
<rect width="32.3459" height="91.6985" rx="16.173" transform="matrix(0.499999 0.866026 -0.866025 0.500001 376.426 49.5986)" fill="#F9AB00"/>
<rect x="394" y="64.0557" width="32.3459" height="91.6985" rx="16.173" transform="rotate(120 394 64.0557)" fill="#34A853"/>
<path d="M412.05 42.632H423.666C427.25 42.632 430.37 43.352 433.026 44.792C435.682 46.232 437.73 48.248 439.17 50.84C440.61 53.432 441.33 56.424 441.33 59.816C441.33 63.208 440.61 66.2 439.17 68.792C437.73 71.384 435.682 73.4 433.026 74.84C430.37 76.28 427.25 77 423.666 77H412.05V42.632ZM423.378 70.856C427.09 70.856 429.922 69.88 431.874 67.928C433.858 65.944 434.85 63.24 434.85 59.816C434.85 56.392 433.858 53.704 431.874 51.752C429.922 49.768 427.09 48.776 423.378 48.776H418.53V70.856H423.378ZM456.966 77.768C454.566 77.768 452.406 77.224 450.486 76.136C448.598 75.048 447.11 73.544 446.022 71.624C444.934 69.672 444.39 67.496 444.39 65.096C444.39 62.824 444.918 60.728 445.974 58.808C447.062 56.856 448.534 55.304 450.39 54.152C452.278 53 454.39 52.424 456.726 52.424C459.222 52.424 461.35 52.968 463.11 54.056C464.902 55.112 466.262 56.568 467.19 58.424C468.118 60.28 468.582 62.392 468.582 64.76C468.582 65.176 468.566 65.56 468.534 65.912C468.502 66.296 468.486 66.504 468.486 66.536H450.582C450.838 68.36 451.574 69.768 452.79 70.76C454.038 71.72 455.462 72.2 457.062 72.2C459.686 72.2 461.67 71.048 463.014 68.744L468.198 71.288C467.046 73.336 465.526 74.936 463.638 76.088C461.75 77.208 459.526 77.768 456.966 77.768ZM462.534 62.072C462.47 61.4 462.198 60.712 461.718 60.008C461.27 59.304 460.614 58.728 459.75 58.28C458.918 57.8 457.91 57.56 456.726 57.56C455.35 57.56 454.134 57.976 453.078 58.808C452.022 59.608 451.286 60.696 450.87 62.072H462.534ZM470.046 53.192H477.198L483.15 68.456H483.486L489.534 53.192H496.638L486.414 77H480.174L470.046 53.192ZM500.737 42.632H522.529V48.776H507.217V57.128H520.993V63.272H507.217V77H500.737V42.632ZM537.028 77.768C534.628 77.768 532.468 77.224 530.548 76.136C528.66 75.048 527.172 73.544 526.084 71.624C524.996 69.672 524.452 67.496 524.452 65.096C524.452 62.824 524.98 60.728 526.036 58.808C527.124 56.856 528.596 55.304 530.452 54.152C532.34 53 534.452 52.424 536.788 52.424C539.284 52.424 541.412 52.968 543.172 54.056C544.964 55.112 546.324 56.568 547.252 58.424C548.18 60.28 548.644 62.392 548.644 64.76C548.644 65.176 548.628 65.56 548.596 65.912C548.564 66.296 548.548 66.504 548.548 66.536H530.644C530.9 68.36 531.636 69.768 532.852 70.76C534.1 71.72 535.524 72.2 537.124 72.2C539.748 72.2 541.732 71.048 543.076 68.744L548.26 71.288C547.108 73.336 545.588 74.936 543.7 76.088C541.812 77.208 539.588 77.768 537.028 77.768ZM542.596 62.072C542.532 61.4 542.26 60.712 541.78 60.008C541.332 59.304 540.676 58.728 539.812 58.28C538.98 57.8 537.972 57.56 536.788 57.56C535.412 57.56 534.196 57.976 533.14 58.808C532.084 59.608 531.348 60.696 530.932 62.072H542.596ZM562.715 77.768C559.803 77.768 557.435 77.144 555.611 75.896C553.819 74.616 552.539 73.016 551.771 71.096L557.387 68.696C557.899 69.88 558.603 70.776 559.499 71.384C560.427 71.96 561.499 72.248 562.715 72.248C563.803 72.248 564.699 72.056 565.403 71.672C566.107 71.256 566.459 70.712 566.459 70.04C566.459 69.368 566.155 68.84 565.547 68.456C564.971 68.04 563.995 67.672 562.619 67.352L559.451 66.632C557.659 66.248 556.091 65.464 554.747 64.28C553.403 63.064 552.731 61.544 552.731 59.72C552.731 57.512 553.643 55.752 555.467 54.44C557.291 53.096 559.579 52.424 562.331 52.424C564.699 52.424 566.747 52.872 568.475 53.768C570.203 54.664 571.467 56.024 572.267 57.848L566.891 60.152C566.443 59.256 565.803 58.6 564.971 58.184C564.171 57.736 563.291 57.512 562.331 57.512C561.371 57.512 560.555 57.704 559.883 58.088C559.243 58.44 558.923 58.92 558.923 59.528C558.923 60.104 559.179 60.568 559.691 60.92C560.235 61.24 561.019 61.528 562.043 61.784L565.643 62.696C568.011 63.272 569.803 64.184 571.019 65.432C572.235 66.68 572.843 68.184 572.843 69.944C572.843 71.384 572.411 72.696 571.547 73.88C570.683 75.064 569.467 76.008 567.899 76.712C566.363 77.416 564.635 77.768 562.715 77.768ZM587.4 77.384C586.216 77.384 585.144 77.208 584.184 76.856C583.224 76.504 582.408 75.992 581.736 75.32C580.232 73.88 579.48 71.832 579.48 69.176V58.568H575.304V53.192H579.48V46.088H585.768V53.192H591.624V58.568H585.768V68.024C585.768 69.272 586.04 70.168 586.584 70.712C587.032 71.224 587.768 71.48 588.792 71.48C589.336 71.48 589.816 71.416 590.232 71.288C590.68 71.128 591.176 70.888 591.72 70.568V76.616C590.376 77.128 588.936 77.384 587.4 77.384ZM608.55 42.632H621.078C623.318 42.632 625.302 43.096 627.03 44.024C628.79 44.952 630.15 46.248 631.11 47.912C632.07 49.544 632.55 51.4 632.55 53.48C632.55 55.688 631.846 57.656 630.438 59.384C629.062 61.08 627.318 62.312 625.206 63.08L625.158 63.416L634.374 76.616V77H626.934L618.054 64.088H615.03V77H608.55V42.632ZM621.03 58.136C622.502 58.136 623.702 57.688 624.63 56.792C625.59 55.896 626.07 54.76 626.07 53.384C626.07 52.072 625.622 50.952 624.726 50.024C623.862 49.096 622.662 48.632 621.126 48.632H615.03V58.136H621.03ZM648.827 77.768C646.395 77.768 644.219 77.224 642.299 76.136C640.379 75.048 638.875 73.544 637.787 71.624C636.699 69.672 636.155 67.496 636.155 65.096C636.155 62.664 636.699 60.488 637.787 58.568C638.875 56.648 640.379 55.144 642.299 54.056C644.219 52.968 646.395 52.424 648.827 52.424C651.227 52.424 653.387 52.968 655.307 54.056C657.227 55.144 658.731 56.664 659.819 58.616C660.907 60.536 661.451 62.696 661.451 65.096C661.451 67.496 660.907 69.672 659.819 71.624C658.731 73.544 657.227 75.048 655.307 76.136C653.387 77.224 651.227 77.768 648.827 77.768ZM648.827 71.96C649.947 71.96 650.987 71.688 651.947 71.144C652.939 70.568 653.723 69.768 654.299 68.744C654.875 67.688 655.163 66.472 655.163 65.096C655.163 63.72 654.875 62.52 654.299 61.496C653.723 60.44 652.939 59.64 651.947 59.096C650.987 58.52 649.947 58.232 648.827 58.232C647.675 58.232 646.603 58.52 645.611 59.096C644.651 59.64 643.883 60.44 643.307 61.496C642.731 62.52 642.443 63.72 642.443 65.096C642.443 66.472 642.731 67.688 643.307 68.744C643.883 69.768 644.651 70.568 645.611 71.144C646.603 71.688 647.675 71.96 648.827 71.96ZM665.578 53.192H671.482V56.264H671.866C672.602 55.08 673.61 54.152 674.89 53.48C676.17 52.776 677.578 52.424 679.114 52.424C680.842 52.424 682.33 52.824 683.578 53.624C684.858 54.424 685.77 55.464 686.314 56.744C687.114 55.464 688.202 54.424 689.578 53.624C690.954 52.824 692.554 52.424 694.378 52.424C697.162 52.424 699.258 53.288 700.666 55.016C702.106 56.712 702.826 59 702.826 61.88V77H696.586V63.032C696.586 61.464 696.234 60.28 695.53 59.48C694.858 58.648 693.882 58.232 692.602 58.232C690.97 58.232 689.69 58.888 688.762 60.2C687.834 61.512 687.37 63.208 687.37 65.288V77H681.082V63.032C681.082 59.832 679.674 58.232 676.858 58.232C675.322 58.232 674.106 58.888 673.21 60.2C672.314 61.512 671.866 63.208 671.866 65.288V77H665.578V53.192ZM715.766 77.768C714.134 77.768 712.646 77.432 711.302 76.76C709.958 76.056 708.902 75.096 708.134 73.88C707.366 72.632 706.982 71.224 706.982 69.656C706.982 68.056 707.398 66.648 708.23 65.432C709.094 64.184 710.262 63.24 711.734 62.6C713.206 61.928 714.854 61.592 716.678 61.592C719.142 61.592 721.238 61.96 722.966 62.696V61.88C722.966 60.6 722.47 59.56 721.478 58.76C720.486 57.928 719.222 57.512 717.686 57.512C715.35 57.512 713.462 58.44 712.022 60.296L707.606 57.128C708.79 55.592 710.262 54.424 712.022 53.624C713.782 52.824 715.718 52.424 717.83 52.424C721.51 52.424 724.31 53.288 726.23 55.016C728.182 56.744 729.158 59.272 729.158 62.6V77H722.966V74.504H722.582C720.822 76.68 718.55 77.768 715.766 77.768ZM717.206 72.872C718.326 72.872 719.318 72.616 720.182 72.104C721.078 71.56 721.766 70.872 722.246 70.04C722.726 69.176 722.966 68.264 722.966 67.304C721.398 66.568 719.75 66.2 718.022 66.2C716.486 66.2 715.318 66.52 714.518 67.16C713.718 67.8 713.318 68.632 713.318 69.656C713.318 70.616 713.686 71.4 714.422 72.008C715.158 72.584 716.086 72.872 717.206 72.872Z" fill="#656C73"/>
</svg>
