<svg width="394" height="123.4603320919" viewBox="0 0 394 123.4603320919" fill="none" xmlns="http://www.w3.org/2000/svg">
<path d="M130 4C113.5 7 113.918 23.4068 115.769 31C125.5 29.5 156.728 26.661 172 26.1186L156.5 0L130 4Z" fill="#A7A6A6"/>
<path d="M231.191 79L254 120C260.083 120 273.785 119.523 277.471 118.784V91.6351H283V84.9865C283 83.6568 246.858 80.1081 231.191 79Z" fill="#A7A6A6"/>
<path d="M110.699 39.6747C137.671 34.7309 166.062 32.326 181.276 33.0126L200.843 68.122C191.32 68.447 183.895 68.643 177.782 68.7958V57.4569C177.782 52.44 173.715 48.373 168.698 48.373C163.681 48.3731 159.614 52.44 159.614 57.4569V69.3231C155.354 69.5048 151.461 69.7537 147.035 70.1649V60.7489C147.035 55.732 142.968 51.6649 137.951 51.6649C132.934 51.6651 128.867 55.732 128.867 60.7489V72.2987C124.946 72.8204 120.505 73.4336 115.367 74.1571V47.5028H110.699V39.6747Z" fill="#A7A6A6"/>
<path d="M191.059 32.4639C224.041 30.7084 266.76 35.0242 283.997 37.4014V45.6299H279.105V74.1573C277.988 73.8065 270.361 73.0357 260.238 72.1309V60.7491C260.238 55.7321 256.171 51.6651 251.154 51.6651C246.137 51.6652 242.07 55.7322 242.07 60.7491V70.5743C237.373 70.1853 232.627 69.802 228.094 69.4395V57.4571C228.094 52.4401 224.027 48.3731 219.01 48.3731C213.993 48.3732 209.926 52.4402 209.926 57.4571V65.6622L191.059 32.4639Z" fill="#A7A6A6"/>
<path d="M110 82.3866C146.337 75.8035 199.211 75.986 219.709 76.9003L245.564 121.336C233.382 122.171 221.958 122.689 211.323 122.958V100.248C211.323 95.231 207.256 91.1639 202.239 91.1639C197.222 91.1641 193.155 95.231 193.155 100.248V123.186C188.292 123.184 183.632 123.128 179.18 123.028V100.248C179.18 95.231 175.113 91.1639 170.096 91.1639C165.079 91.1641 161.012 95.231 161.012 100.248V122.33C155.983 122.051 151.322 121.718 147.035 121.348V99.1503C147.035 94.1333 142.968 90.0663 137.951 90.0663C132.934 90.0664 128.867 94.1334 128.867 99.1503V119.289C123.356 118.486 119.145 117.669 116.289 116.947V92.8094H110V82.3866Z" fill="#A7A6A6"/>
<rect width="32.3459" height="91.6984" rx="16.173" transform="matrix(-0.499998 -0.866026 0.866024 -0.500002 16.6504 93.8574)" fill="#EA4335"/>
<rect width="32.3459" height="91.6984" rx="16.173" transform="matrix(0.499995 -0.866028 0.866023 0.500005 0 77.5537)" fill="#4285F4"/>
<rect width="32.3459" height="91.6985" rx="16.173" transform="matrix(0.499999 0.866026 -0.866025 0.500001 376.426 49.5986)" fill="#F9AB00"/>
<rect x="394" y="64.0557" width="32.3459" height="91.6985" rx="16.173" transform="rotate(120 394 64.0557)" fill="#34A853"/>
</svg>
