<svg width="394" height="205" viewBox="0 0 394 205" fill="none" xmlns="http://www.w3.org/2000/svg">
<path d="M130 4C113.5 7 113.918 23.4068 115.769 31C125.5 29.5 156.728 26.661 172 26.1186L156.5 0L130 4Z" fill="#A7A6A6"/>
<path d="M231.191 79L254 120C260.083 120 273.785 119.523 277.471 118.784V91.6351H283V84.9865C283 83.6568 246.858 80.1081 231.191 79Z" fill="#A7A6A6"/>
<path d="M110.699 39.6748C137.671 34.731 166.062 32.3261 181.276 33.0127L200.843 68.1221C191.32 68.4471 183.895 68.6431 177.782 68.7959V57.457C177.782 52.4401 173.715 48.373 168.698 48.373C163.681 48.3732 159.614 52.4402 159.614 57.457V69.3232C155.354 69.5049 151.461 69.7538 147.035 70.165V60.749C147.035 55.7321 142.968 51.665 137.951 51.665C132.934 51.6652 128.867 55.7321 128.867 60.749V72.2988C124.946 72.8204 120.505 73.4337 115.367 74.1572V47.5029H110.699V39.6748Z" fill="#A7A6A6"/>
<path d="M191.059 32.4639C224.041 30.7084 266.76 35.0241 283.997 37.4014V45.6299H279.105V74.1572C277.988 73.8064 270.361 73.0356 260.238 72.1309V60.749C260.238 55.7321 256.171 51.665 251.154 51.665C246.137 51.6652 242.07 55.7321 242.07 60.749V70.5742C237.373 70.1853 232.627 69.802 228.094 69.4395V57.457C228.094 52.4401 224.027 48.373 219.01 48.373C213.993 48.3732 209.926 52.4402 209.926 57.457V65.6621L191.059 32.4639Z" fill="#A7A6A6"/>
<path d="M110 82.3867C146.337 75.8036 199.211 75.9861 219.709 76.9004L245.564 121.336C233.382 122.171 221.958 122.689 211.323 122.958V100.248C211.323 95.2311 207.256 91.1641 202.239 91.1641C197.222 91.1642 193.155 95.2312 193.155 100.248V123.187C188.292 123.184 183.632 123.128 179.18 123.028V100.248C179.18 95.2311 175.113 91.1641 170.096 91.1641C165.079 91.1642 161.012 95.2312 161.012 100.248V122.33C155.983 122.052 151.322 121.718 147.035 121.348V99.1504C147.035 94.1335 142.968 90.0664 137.951 90.0664C132.934 90.0665 128.867 94.1336 128.867 99.1504V119.289C123.356 118.486 119.145 117.669 116.289 116.947V92.8096H110V82.3867Z" fill="#A7A6A6"/>
<path d="M34.0498 155.632H45.6658C49.2498 155.632 52.3698 156.352 55.0258 157.792C57.6818 159.232 59.7298 161.248 61.1698 163.84C62.6098 166.432 63.3298 169.424 63.3298 172.816C63.3298 176.208 62.6098 179.2 61.1698 181.792C59.7298 184.384 57.6818 186.4 55.0258 187.84C52.3698 189.28 49.2498 190 45.6658 190H34.0498V155.632ZM45.3778 183.856C49.0898 183.856 51.9218 182.88 53.8738 180.928C55.8578 178.944 56.8498 176.24 56.8498 172.816C56.8498 169.392 55.8578 166.704 53.8738 164.752C51.9218 162.768 49.0898 161.776 45.3778 161.776H40.5298V183.856H45.3778ZM78.9658 190.768C76.5658 190.768 74.4058 190.224 72.4858 189.136C70.5978 188.048 69.1098 186.544 68.0218 184.624C66.9338 182.672 66.3898 180.496 66.3898 178.096C66.3898 175.824 66.9178 173.728 67.9738 171.808C69.0618 169.856 70.5338 168.304 72.3898 167.152C74.2778 166 76.3898 165.424 78.7258 165.424C81.2218 165.424 83.3498 165.968 85.1098 167.056C86.9018 168.112 88.2618 169.568 89.1898 171.424C90.1178 173.28 90.5818 175.392 90.5818 177.76C90.5818 178.176 90.5658 178.56 90.5338 178.912C90.5018 179.296 90.4858 179.504 90.4858 179.536H72.5818C72.8378 181.36 73.5738 182.768 74.7898 183.76C76.0378 184.72 77.4618 185.2 79.0618 185.2C81.6858 185.2 83.6698 184.048 85.0138 181.744L90.1978 184.288C89.0458 186.336 87.5258 187.936 85.6378 189.088C83.7498 190.208 81.5258 190.768 78.9658 190.768ZM84.5338 175.072C84.4698 174.4 84.1978 173.712 83.7178 173.008C83.2698 172.304 82.6138 171.728 81.7498 171.28C80.9178 170.8 79.9098 170.56 78.7258 170.56C77.3498 170.56 76.1338 170.976 75.0778 171.808C74.0218 172.608 73.2858 173.696 72.8698 175.072H84.5338ZM92.0458 166.192H99.1978L105.15 181.456H105.486L111.534 166.192H118.638L108.414 190H102.174L92.0458 166.192ZM122.737 155.632H144.529V161.776H129.217V170.128H142.993V176.272H129.217V190H122.737V155.632ZM159.028 190.768C156.628 190.768 154.468 190.224 152.548 189.136C150.66 188.048 149.172 186.544 148.084 184.624C146.996 182.672 146.452 180.496 146.452 178.096C146.452 175.824 146.98 173.728 148.036 171.808C149.124 169.856 150.596 168.304 152.452 167.152C154.34 166 156.452 165.424 158.788 165.424C161.284 165.424 163.412 165.968 165.172 167.056C166.964 168.112 168.324 169.568 169.252 171.424C170.18 173.28 170.644 175.392 170.644 177.76C170.644 178.176 170.628 178.56 170.596 178.912C170.564 179.296 170.548 179.504 170.548 179.536H152.644C152.9 181.36 153.636 182.768 154.852 183.76C156.1 184.72 157.524 185.2 159.124 185.2C161.748 185.2 163.732 184.048 165.076 181.744L170.26 184.288C169.108 186.336 167.588 187.936 165.7 189.088C163.812 190.208 161.588 190.768 159.028 190.768ZM164.596 175.072C164.532 174.4 164.26 173.712 163.78 173.008C163.332 172.304 162.676 171.728 161.812 171.28C160.98 170.8 159.972 170.56 158.788 170.56C157.412 170.56 156.196 170.976 155.14 171.808C154.084 172.608 153.348 173.696 152.932 175.072H164.596ZM184.715 190.768C181.803 190.768 179.435 190.144 177.611 188.896C175.819 187.616 174.539 186.016 173.771 184.096L179.387 181.696C179.899 182.88 180.603 183.776 181.499 184.384C182.427 184.96 183.499 185.248 184.715 185.248C185.803 185.248 186.699 185.056 187.403 184.672C188.107 184.256 188.459 183.712 188.459 183.04C188.459 182.368 188.155 181.84 187.547 181.456C186.971 181.04 185.995 180.672 184.619 180.352L181.451 179.632C179.659 179.248 178.091 178.464 176.747 177.28C175.403 176.064 174.731 174.544 174.731 172.72C174.731 170.512 175.643 168.752 177.467 167.44C179.291 166.096 181.579 165.424 184.331 165.424C186.699 165.424 188.747 165.872 190.475 166.768C192.203 167.664 193.467 169.024 194.267 170.848L188.891 173.152C188.443 172.256 187.803 171.6 186.971 171.184C186.171 170.736 185.291 170.512 184.331 170.512C183.371 170.512 182.555 170.704 181.883 171.088C181.243 171.44 180.923 171.92 180.923 172.528C180.923 173.104 181.179 173.568 181.691 173.92C182.235 174.24 183.019 174.528 184.043 174.784L187.643 175.696C190.011 176.272 191.803 177.184 193.019 178.432C194.235 179.68 194.843 181.184 194.843 182.944C194.843 184.384 194.411 185.696 193.547 186.88C192.683 188.064 191.467 189.008 189.899 189.712C188.363 190.416 186.635 190.768 184.715 190.768ZM209.4 190.384C208.216 190.384 207.144 190.208 206.184 189.856C205.224 189.504 204.408 188.992 203.736 188.32C202.232 186.88 201.48 184.832 201.48 182.176V171.568H197.304V166.192H201.48V159.088H207.768V166.192H213.624V171.568H207.768V181.024C207.768 182.272 208.04 183.168 208.584 183.712C209.032 184.224 209.768 184.48 210.792 184.48C211.336 184.48 211.816 184.416 212.232 184.288C212.68 184.128 213.176 183.888 213.72 183.568V189.616C212.376 190.128 210.936 190.384 209.4 190.384ZM230.55 155.632H243.078C245.318 155.632 247.302 156.096 249.03 157.024C250.79 157.952 252.15 159.248 253.11 160.912C254.07 162.544 254.55 164.4 254.55 166.48C254.55 168.688 253.846 170.656 252.438 172.384C251.062 174.08 249.318 175.312 247.206 176.08L247.158 176.416L256.374 189.616V190H248.934L240.054 177.088H237.03V190H230.55V155.632ZM243.03 171.136C244.502 171.136 245.702 170.688 246.63 169.792C247.59 168.896 248.07 167.76 248.07 166.384C248.07 165.072 247.622 163.952 246.726 163.024C245.862 162.096 244.662 161.632 243.126 161.632H237.03V171.136H243.03ZM270.827 190.768C268.395 190.768 266.219 190.224 264.299 189.136C262.379 188.048 260.875 186.544 259.787 184.624C258.699 182.672 258.155 180.496 258.155 178.096C258.155 175.664 258.699 173.488 259.787 171.568C260.875 169.648 262.379 168.144 264.299 167.056C266.219 165.968 268.395 165.424 270.827 165.424C273.227 165.424 275.387 165.968 277.307 167.056C279.227 168.144 280.731 169.664 281.819 171.616C282.907 173.536 283.451 175.696 283.451 178.096C283.451 180.496 282.907 182.672 281.819 184.624C280.731 186.544 279.227 188.048 277.307 189.136C275.387 190.224 273.227 190.768 270.827 190.768ZM270.827 184.96C271.947 184.96 272.987 184.688 273.947 184.144C274.939 183.568 275.723 182.768 276.299 181.744C276.875 180.688 277.163 179.472 277.163 178.096C277.163 176.72 276.875 175.52 276.299 174.496C275.723 173.44 274.939 172.64 273.947 172.096C272.987 171.52 271.947 171.232 270.827 171.232C269.675 171.232 268.603 171.52 267.611 172.096C266.651 172.64 265.883 173.44 265.307 174.496C264.731 175.52 264.443 176.72 264.443 178.096C264.443 179.472 264.731 180.688 265.307 181.744C265.883 182.768 266.651 183.568 267.611 184.144C268.603 184.688 269.675 184.96 270.827 184.96ZM287.578 166.192H293.482V169.264H293.866C294.602 168.08 295.61 167.152 296.89 166.48C298.17 165.776 299.578 165.424 301.114 165.424C302.842 165.424 304.33 165.824 305.578 166.624C306.858 167.424 307.77 168.464 308.314 169.744C309.114 168.464 310.202 167.424 311.578 166.624C312.954 165.824 314.554 165.424 316.378 165.424C319.162 165.424 321.258 166.288 322.666 168.016C324.106 169.712 324.826 172 324.826 174.88V190H318.586V176.032C318.586 174.464 318.234 173.28 317.53 172.48C316.858 171.648 315.882 171.232 314.602 171.232C312.97 171.232 311.69 171.888 310.762 173.2C309.834 174.512 309.37 176.208 309.37 178.288V190H303.082V176.032C303.082 172.832 301.674 171.232 298.858 171.232C297.322 171.232 296.106 171.888 295.21 173.2C294.314 174.512 293.866 176.208 293.866 178.288V190H287.578V166.192ZM337.766 190.768C336.134 190.768 334.646 190.432 333.302 189.76C331.958 189.056 330.902 188.096 330.134 186.88C329.366 185.632 328.982 184.224 328.982 182.656C328.982 181.056 329.398 179.648 330.23 178.432C331.094 177.184 332.262 176.24 333.734 175.6C335.206 174.928 336.854 174.592 338.678 174.592C341.142 174.592 343.238 174.96 344.966 175.696V174.88C344.966 173.6 344.47 172.56 343.478 171.76C342.486 170.928 341.222 170.512 339.686 170.512C337.35 170.512 335.462 171.44 334.022 173.296L329.606 170.128C330.79 168.592 332.262 167.424 334.022 166.624C335.782 165.824 337.718 165.424 339.83 165.424C343.51 165.424 346.31 166.288 348.23 168.016C350.182 169.744 351.158 172.272 351.158 175.6V190H344.966V187.504H344.582C342.822 189.68 340.55 190.768 337.766 190.768ZM339.206 185.872C340.326 185.872 341.318 185.616 342.182 185.104C343.078 184.56 343.766 183.872 344.246 183.04C344.726 182.176 344.966 181.264 344.966 180.304C343.398 179.568 341.75 179.2 340.022 179.2C338.486 179.2 337.318 179.52 336.518 180.16C335.718 180.8 335.318 181.632 335.318 182.656C335.318 183.616 335.686 184.4 336.422 185.008C337.158 185.584 338.086 185.872 339.206 185.872Z" fill="#656C73"/>
<rect x="16.6504" y="93.8564" width="32.3459" height="91.6985" rx="16.1729" transform="rotate(-120 16.6504 93.8564)" fill="#EA4335"/>
<rect width="32.3459" height="91.6985" rx="16.1729" transform="matrix(0.499997 -0.866027 0.866024 0.500003 0 77.5518)" fill="#4285F4"/>
<rect width="32.3459" height="91.6985" rx="16.1729" transform="matrix(0.499999 0.866026 -0.866025 0.500001 376.426 49.5986)" fill="#F9AB00"/>
<rect x="394" y="64.0557" width="32.3459" height="91.6985" rx="16.1729" transform="rotate(120 394 64.0557)" fill="#34A853"/>
</svg>
