<?xml version="1.0" encoding="UTF-8"?>
<svg id="Livello_1" data-name="Livello 1" xmlns="http://www.w3.org/2000/svg" viewBox="0 0 500 242.43">
  <defs>
    <style>
      .cls-1 {
        fill: #035172;
      }
    </style>
  </defs>
  <g>
    <path class="cls-1" d="M9.08,204.8v37.63H0v-37.63h9.08Z"/>
    <path class="cls-1" d="M42.89,227.37v-22.58h8.3v37.63h-7.23l-17.44-24.01v24.01h-8.36v-37.63h8.72l16.01,22.58Z"/>
    <path class="cls-1" d="M85.01,227.37v-22.58h8.3v37.63h-7.23l-17.44-24.01v24.01h-8.36v-37.63h8.72l16.01,22.58Z"/>
    <path class="cls-1" d="M120.01,243.14c-10.93,0-19.29-7.94-19.29-19.53s8.36-19.53,19.29-19.53,19.35,7.94,19.35,19.53-8.36,19.53-19.35,19.53ZM120.01,212.02c-6.09,0-9.98,4.6-9.98,11.59s3.88,11.59,9.98,11.59,10.04-4.6,10.04-11.59-3.88-11.59-10.04-11.59Z"/>
    <path class="cls-1" d="M156.69,242.43l-14.58-37.63h9.44l10.09,26.46h.24l9.97-26.46h9.02l-14.58,37.63h-9.62Z"/>
    <path class="cls-1" d="M205.91,204.8l15.17,37.63h-9.68l-3.22-8.12h-15.17l-3.17,8.12h-9.08l15.05-37.63h10.09ZM195.64,227.49h9.92l-4.84-12.36h-.24l-4.84,12.36Z"/>
    <path class="cls-1" d="M233.75,242.43v-30.16h-13.08v-7.47h35.36v7.47h-13.26v30.16h-9.02Z"/>
    <path class="cls-1" d="M272.58,204.8v37.63h-9.08v-37.63h9.08Z"/>
    <path class="cls-1" d="M299.28,243.14c-10.93,0-19.29-7.94-19.29-19.53s8.36-19.53,19.29-19.53,19.35,7.94,19.35,19.53-8.36,19.53-19.35,19.53ZM299.28,212.02c-6.09,0-9.98,4.6-9.98,11.59s3.88,11.59,9.98,11.59,10.04-4.6,10.04-11.59-3.88-11.59-10.04-11.59Z"/>
    <path class="cls-1" d="M350.78,227.37v-22.58h8.3v37.63h-7.23l-17.44-24.01v24.01h-8.36v-37.63h8.72l16.01,22.58Z"/>
    <path class="cls-1" d="M381.9,242.43v-37.63h9.08v14.87h16.42v-14.87h9.08v37.63h-9.08v-15.41h-16.42v15.41h-9.08Z"/>
    <path class="cls-1" d="M425.27,227.61v-22.82h9.02v21.5c0,6.03,2.15,9.2,7.65,9.2s7.71-3.17,7.71-9.14v-21.56h9.02v22.82c0,10.99-7.29,15.53-16.72,15.53s-16.67-4.54-16.67-15.53Z"/>
    <path class="cls-1" d="M486.2,242.43h-18.82v-37.63h17.68c9.62,0,13.86,4.06,13.86,10.33,0,4.18-2.81,7.11-6.81,7.77,4.48.9,7.88,3.82,7.88,9.2,0,6.51-5.02,10.33-13.8,10.33ZM476.17,220.03h7.88c3.94,0,5.5-1.73,5.5-3.94,0-2.33-1.55-4.06-5.5-4.06h-7.88v8ZM476.17,226.84v8.3h8.72c4,0,5.85-1.61,5.85-4.12s-1.85-4.18-5.91-4.18h-8.66Z"/>
  </g>
  <g>
    <rect class="cls-1" x="282.08" width="46.2" height="163.02"/>
    <path class="cls-1" d="M262.49,163.02v-35.14h-32.81l31.72-37.78c-7.01-20.9-26.15-36.22-49.08-37.59h-.28.02c-1.03-.06-2.07-.1-3.1-.1-30.55,0-55.32,24.77-55.32,55.32,0,27.99,20.8,51.1,47.8,54.79.06,0,.14.02.18.04.12.02.26.02.38.04.14.02.26.04.4.06,2.15.26,4.36.41,6.58.41h53.52v-.06ZM193.5,121.19c-3.14-3.59-5.04-8.32-5.04-13.47,0-11.34,9.2-20.52,20.52-20.52,3.87,0,7.49,1.07,10.59,2.94l-26.07,31.07v-.02Z"/>
    <rect class="cls-1" x="347.69" y="57.02" width="46.2" height="106.02"/>
    <rect class="cls-1" x="347.69" width="46.2" height="35.22"/>
    <path class="cls-1" d="M.04,0l-.04,58.17c0,13.71,3.52,27.18,9.28,39.84L67.25,26.76l57.95,71.24c5.79-12.64,9.3-26.13,9.3-39.84l-.06-58.17H.04Z"/>
    <path class="cls-1" d="M19.45,117.36c13.23,19.43,31.07,35.63,47.76,45.68,16.65-10.05,34.5-26.25,47.74-45.68-2.03-2.47-41.73-50.32-47.74-57.44-6.02,7.13-45.74,54.99-47.76,57.44"/>
    <path class="cls-1" d="M497.46,89.92h0v2.21h-23.88c-.16,0-.34,0-.49.02h-10.88l32.49,38.69c-.08-.08-.16-.16-.24-.26l1.44,1.7s.02.02.04.04c2.39,3.2,3.81,7.17,3.81,11.48,0,10.59-8.59,19.18-19.18,19.18h-.1v.06c-18.33,0-59.61-.06-66.99-.06l-.1-32.83h.02v-2.21h25.66c.18,0,.34,0,.49-.02h10.88l-32.59-39.11s-.04-.04-.06-.08l-.2-.24.12.16c-2.9-3.36-4.66-7.72-4.66-12.52,0-10.55,8.55-19.12,19.12-19.12h.85c18.84.02,57.1.06,64.37.06l.1,32.83-.02.02Z"/>
  </g>
</svg>